<?xml version="1.0" encoding="UTF-8" standalone="no"?>
<svg
   xmlns:dc="http://purl.org/dc/elements/1.1/"
   xmlns:cc="http://creativecommons.org/ns#"
   xmlns:rdf="http://www.w3.org/1999/02/22-rdf-syntax-ns#"
   xmlns:svg="http://www.w3.org/2000/svg"
   xmlns="http://www.w3.org/2000/svg"
   version="1.1"
   id="svg3007"
   height="64px"
   width="64px">
  <title
     id="title829">Bulb</title>
  <defs
     id="defs3009" />
  <metadata
     id="metadata3012">
    <rdf:RDF>
      <cc:Work
         rdf:about="">
        <dc:format>image/svg+xml</dc:format>
        <dc:type
           rdf:resource="http://purl.org/dc/dcmitype/StillImage" />
        <dc:title>Bulb</dc:title>
        <dc:creator>
          <cc:Agent>
            <dc:title>vocx</dc:title>
          </cc:Agent>
        </dc:creator>
        <dc:description>A yellow light bulb, with highlights and shadows, shinning</dc:description>
      </cc:Work>
    </rdf:RDF>
  </metadata>
  <g
     id="layer1">
    <path
       id="path822"
       d="m 13,25 c 0,-7 5,-19 19,-19 14,0 19,12 19,19 0,9 -4,8 -7,13 -1.855041,3.091735 -1.019379,7.038759 -2,9 -1,2 -2,2 -2,2 H 25 c 0,0 -1,0 -2,-2 -1.056386,-2.112771 -1.148617,-5.914361 -3,-9 -2.919639,-4.866064 -7,-4 -7,-13 z"
       style="fill:#e8ee4e;fill-opacity:1;stroke:#363925;stroke-width:2;stroke-linecap:butt;stroke-linejoin:round;stroke-miterlimit:4;stroke-dasharray:none;stroke-opacity:1" />
    <path
       id="path824"
       d="m 25,49 h 15 v 8 H 25 Z"
       style="fill:#c4c4c4;fill-opacity:1;stroke:#3c3c3c;stroke-width:2;stroke-linecap:butt;stroke-linejoin:round;stroke-miterlimit:4;stroke-dasharray:none;stroke-opacity:1" />
    <path
       id="path824-3"
       d="m 30,57 h 5 v 3 h -5 z"
       style="fill:#c4c4c4;fill-opacity:1;stroke:#3c3c3c;stroke-width:2;stroke-linecap:butt;stroke-linejoin:round;stroke-miterlimit:4;stroke-dasharray:none;stroke-opacity:1" />
    <path
       id="path822-6"
       d="m 21,33 c 0,0 4,1 11,1 7,0 11,-1 11,-1 0,3 -3,1 -3,5 0,3 0,3 -1,5 -1,2 -3,2 -3,2 h -7 c 0,0 -2,0 -3,-2 -1,-2 -1,-2 -1,-5 0,-4 -4,-2 -4,-5 z"
       style="fill:#e8c016;fill-opacity:1;stroke:#e8c016;stroke-width:2;stroke-linecap:butt;stroke-linejoin:round;stroke-miterlimit:4;stroke-dasharray:none;stroke-opacity:1" />
    <path
       style="fill:#e8c016;fill-opacity:1;stroke:#e8c016;stroke-width:2;stroke-linecap:butt;stroke-linejoin:round;stroke-miterlimit:4;stroke-dasharray:none;stroke-opacity:1"
       d="m 42,28 c 3,-2 4,-5 4,-7 0,-2 -2,-5 -3,-6 -4.527693,-4.527693 -17,-5 -22,0 -1,1 -3,4 -3,6 0,2 1,5 4,7 0,0 5,1 10,1 5,0 10,-1 10,-1 z"
       id="path856" />
    <g
       transform="translate(-1)"
       id="g976">
      <path
         id="path892"
         d="M 9,21 H 3"
         style="fill:none;stroke:#363925;stroke-width:2;stroke-linecap:round;stroke-linejoin:round;stroke-miterlimit:4;stroke-dasharray:none;stroke-opacity:1" />
      <path
         id="path892-5"
         d="M 10,35 4.3431459,37"
         style="fill:none;stroke:#363925;stroke-width:2;stroke-linecap:round;stroke-linejoin:round;stroke-miterlimit:4;stroke-dasharray:none;stroke-opacity:1" />
      <path
         id="path892-5-6"
         d="m 17,44 -4.472136,4"
         style="fill:none;stroke:#363925;stroke-width:2;stroke-linecap:round;stroke-linejoin:round;stroke-miterlimit:4;stroke-dasharray:none;stroke-opacity:1" />
      <path
         id="path892-2"
         d="M 12,7 7.527864,3"
         style="fill:none;stroke:#363925;stroke-width:2;stroke-linecap:round;stroke-linejoin:round;stroke-miterlimit:4;stroke-dasharray:none;stroke-opacity:1" />
    </g>
    <g
       id="g839"
       transform="matrix(-1,0,0,1,64.996399,0)">
      <path
         style="fill:none;stroke:#363925;stroke-width:2;stroke-linecap:round;stroke-linejoin:round;stroke-miterlimit:4;stroke-dasharray:none;stroke-opacity:1"
         d="M 9,21 H 3"
         id="path831" />
      <path
         style="fill:none;stroke:#363925;stroke-width:2;stroke-linecap:round;stroke-linejoin:round;stroke-miterlimit:4;stroke-dasharray:none;stroke-opacity:1"
         d="M 10,35 4.3431459,37"
         id="path833" />
      <path
         style="fill:none;stroke:#363925;stroke-width:2;stroke-linecap:round;stroke-linejoin:round;stroke-miterlimit:4;stroke-dasharray:none;stroke-opacity:1"
         d="m 17,44 -4.472136,4"
         id="path835" />
      <path
         style="fill:none;stroke:#363925;stroke-width:2;stroke-linecap:round;stroke-linejoin:round;stroke-miterlimit:4;stroke-dasharray:none;stroke-opacity:1"
         d="M 12,7 7.527864,3"
         id="path837" />
    </g>
    <path
       id="path841"
       d="m 35,24 c 2.086806,-1.707714 2.782408,-4.269288 2.782408,-5.977003 0,-1.707717 -1.391205,-4.269289 -2.086806,-5.123147 -3.149472,-3.8660043 -11.82523,-4.2692874 -15.30324,0 -0.695601,0.853858 -2.086805,3.41543 -2.086805,5.123147 0,1.707715 0.695602,4.269289 2.782407,5.977003 0,0 3.478009,0.853858 6.956019,0.853858 C 31.521991,24.853858 35,24 35,24 Z"
       style="fill:#f8f9c7;fill-opacity:1;stroke:none;stroke-width:2;stroke-linecap:butt;stroke-linejoin:round;stroke-miterlimit:4;stroke-dasharray:none;stroke-opacity:1" />
  </g>
</svg>
