<?xml version="1.0" encoding="UTF-8" standalone="no"?>
<svg
   xmlns:dc="http://purl.org/dc/elements/1.1/"
   xmlns:cc="http://creativecommons.org/ns#"
   xmlns:rdf="http://www.w3.org/1999/02/22-rdf-syntax-ns#"
   xmlns:svg="http://www.w3.org/2000/svg"
   xmlns="http://www.w3.org/2000/svg"
   version="1.1"
   id="svg3007"
   height="64px"
   width="64px">
  <title
     id="title820">IFC++ logo</title>
  <defs
     id="defs3009" />
  <metadata
     id="metadata3012">
    <rdf:RDF>
      <cc:Work
         rdf:about="">
        <dc:format>image/svg+xml</dc:format>
        <dc:type
           rdf:resource="http://purl.org/dc/dcmitype/StillImage" />
        <dc:title>IFC++ logo</dc:title>
        <dc:creator>
          <cc:Agent>
            <dc:title>vocx</dc:title>
          </cc:Agent>
        </dc:creator>
        <dc:description>The letters 'IFC' and two plus signs</dc:description>
      </cc:Work>
    </rdf:RDF>
  </metadata>
  <g
     id="layer1">
    <path
       id="path910"
       d="m 6,5 h 6 V 30 H 6 Z"
       style="fill:#4e7492;fill-opacity:1;stroke:#1c1c33;stroke-width:2;stroke-linecap:butt;stroke-linejoin:round;stroke-miterlimit:4;stroke-dasharray:none;stroke-opacity:1" />
    <path
       style="fill:#4e7492;fill-opacity:1;stroke:#1c1c33;stroke-width:2;stroke-linecap:butt;stroke-linejoin:round;stroke-miterlimit:4;stroke-dasharray:none;stroke-opacity:1"
       d="m 18,5 h 16 v 5 H 24 v 5 h 10 v 5 H 24 v 10 h -6 z"
       id="path912" />
    <path
       id="path914"
       d="m 59,6 v 4 c 0,0 -14,-6 -14,7 0,13 14,8 14,8 v 4 C 59,29 39,34 39,17 39,0 59,6 59,6 Z"
       style="fill:#4e7492;fill-opacity:1;stroke:#1c1c33;stroke-width:2;stroke-linecap:butt;stroke-linejoin:round;stroke-miterlimit:4;stroke-dasharray:none;stroke-opacity:1" />
    <path
       style="fill:#1ba737;fill-opacity:1;stroke:#142513;stroke-width:2;stroke-linecap:butt;stroke-linejoin:round;stroke-miterlimit:4;stroke-dasharray:none;stroke-opacity:1"
       d="m 15,39 h 6 v 7 h 7 v 6 h -7 v 7 H 15 V 52 H 8 v -6 h 7 z"
       id="path924" />
    <path
       id="path818"
       d="m 43,39 h 6 v 7 h 7 v 6 h -7 v 7 h -6 v -7 h -7 v -6 h 7 z"
       style="fill:#1ba737;fill-opacity:1;stroke:#142513;stroke-width:2;stroke-linecap:butt;stroke-linejoin:round;stroke-miterlimit:4;stroke-dasharray:none;stroke-opacity:1" />
  </g>
</svg>
