<?xml version="1.0" encoding="utf-8"?>
<!DOCTYPE svg PUBLIC "-//W3C//DTD SVG 1.1//EN" "http://www.w3.org/Graphics/SVG/1.1/DTD/svg11.dtd">
<svg version="1.1" xmlns="http://www.w3.org/2000/svg" xmlns:xlink="http://www.w3.org/1999/xlink" x="0px" y="0px" viewBox="0 0 1000 1000" enable-background="new 0 0 1000 1000" xml:space="preserve">
<g><path fill="#32BEA6" d="M774.8,193.8H622.5c-16.9,0-30.6,13.7-30.6,30.6c0,16.9,13.7,30.6,30.6,30.6H703L556,402l43.3,43.3l146.3-146.3l-0.7,78.6c0,16.9,13.7,30.6,30.6,30.6s30.6-13.7,30.6-30.6V224.4c0-9.1-3.8-16.4-9.7-21.4C791,197.3,783.3,193.8,774.8,193.8L774.8,193.8z  M400.7,554.8L254.3,701.2l0.7-78.7c0-16.8-13.7-30.6-30.6-30.6s-30.6,13.8-30.6,30.6v153.1c0,9.2,3.8,16.5,9.7,21.4c5.5,5.5,13.3,9.2,21.8,9.2h152.3c16.9,0,30.6-13.8,30.6-30.6S394.4,745,377.5,745H297L444,598L400.7,554.8L400.7,554.8z M775.6,591.9c-16.9,0-30.6,13.8-30.6,30.6l0.7,78.7L599.3,554.8L556,598L703,745h-80.5c-16.9,0-30.6,13.8-30.6,30.6s13.7,30.6,30.6,30.6h152.3c8.5,0,16.3-3.7,21.8-9.2c5.9-4.9,9.7-12.3,9.7-21.4V622.5C806.3,605.7,792.5,591.9,775.6,591.9L775.6,591.9z M377.5,255c16.9,0,30.6-13.7,30.6-30.6c0-16.9-13.7-30.6-30.6-30.6H225.2c-8.5,0-16.2,3.5-21.8,9.2c-5.9,5-9.7,12.3-9.7,21.4v153.1c0,16.9,13.7,30.6,30.6,30.6s30.6-13.7,30.6-30.6l-0.7-78.6l146.3,146.3L444,402L297,255H377.5L377.5,255z"/></g>
</svg>